<?xml version="1.0" encoding="utf-8"?>
<!-- Generator: Adobe Illustrator 16.0.4, SVG Export Plug-In . SVG Version: 6.00 Build 0)  -->
<!DOCTYPE svg PUBLIC "-//W3C//DTD SVG 1.1//EN" "http://www.w3.org/Graphics/SVG/1.1/DTD/svg11.dtd">
<svg version="1.1" id="Layer_1" xmlns="http://www.w3.org/2000/svg" xmlns:xlink="http://www.w3.org/1999/xlink" x="0px" y="0px"
	 width="93.778px" height="17.52px" viewBox="0 0 93.778 17.52" enable-background="new 0 0 93.778 17.52" xml:space="preserve">
<g>
	<path fill="#FFF6A5" d="M9.98,15.16c-1.253-0.947-2.527-1.42-3.82-1.42c-1.667,0-3.367,0.474-5.1,1.42l-0.24-0.38
		c0.106-0.053,0.223-0.123,0.35-0.21c0.126-0.086,0.27-0.19,0.43-0.31c1.24-0.893,1.88-1.8,1.92-2.72v-0.1
		c-0.027-0.36-0.15-0.673-0.37-0.94c-0.22-0.267-0.503-0.4-0.85-0.4c-0.187,0-0.367,0.04-0.54,0.12l-0.2-0.24
		c0.36-0.4,0.727-0.6,1.1-0.6c0.347,0,0.673,0.113,0.98,0.34c-0.04-1.2-0.533-1.8-1.48-1.8c-0.307,0-0.593,0.093-0.86,0.28L1.06,8
		c0.493-0.6,1.02-0.907,1.58-0.92c0.2,0,0.374,0.02,0.52,0.06c0.053,0,0.14,0.02,0.26,0.06c0-0.08-0.007-0.2-0.02-0.36
		C3.386,6.68,3.38,6.56,3.38,6.48c0-1.267,0.466-2.367,1.4-3.3L4.96,3c-0.813,0.187-1.38,0.28-1.7,0.28
		c-0.227,0-0.547-0.073-0.96-0.22H2.24C2.227,3.047,2.207,3.04,2.18,3.04C1.873,2.92,1.593,2.86,1.34,2.86
		c-0.253,0-0.463,0.097-0.63,0.29C0.543,3.343,0.46,3.573,0.46,3.84c0,0.054,0.013,0.133,0.04,0.24v0.06
		C0.513,4.153,0.52,4.173,0.52,4.2L0.16,4.32C0.053,3.973,0,3.707,0,3.52c0-0.56,0.207-1.047,0.62-1.46
		c0.414-0.413,0.9-0.633,1.46-0.66c0.32,0,0.773,0.1,1.36,0.3C4.04,1.9,4.5,2,4.82,2C5.3,2,5.9,1.82,6.62,1.46L6.8,1.74
		C6.773,1.767,6.736,1.8,6.69,1.84C6.643,1.88,6.586,1.927,6.52,1.98C6.026,2.394,5.68,2.773,5.48,3.12
		C5.227,3.533,5.1,4.033,5.1,4.62c0,0.213,0.01,0.483,0.03,0.81c0.02,0.327,0.057,0.704,0.11,1.13s0.09,0.8,0.11,1.12
		C5.37,8,5.38,8.273,5.38,8.5c0,1.6-0.56,3.12-1.68,4.56c1.827-1.24,2.74-2.887,2.74-4.94c0-0.187-0.01-0.417-0.03-0.69
		C6.39,7.157,6.353,6.833,6.3,6.46C6.22,5.727,6.18,5.173,6.18,4.8c0-1.12,0.347-1.966,1.04-2.54c0.653-0.533,1.547-0.8,2.68-0.8
		l0.22,0.44C8.707,2.073,8,2.727,8,3.86c0,0.4,0.04,0.987,0.12,1.76c0.053,0.387,0.09,0.727,0.11,1.02s0.03,0.533,0.03,0.72
		c0,1.147-0.327,2.173-0.98,3.08c-0.227,0.333-0.53,0.693-0.91,1.08c-0.38,0.387-0.85,0.793-1.41,1.22
		c0.533-0.187,1.133-0.32,1.8-0.4c0.146-0.013,0.297-0.023,0.45-0.03c0.153-0.007,0.303-0.01,0.45-0.01
		c1.227,0,2.333,0.42,3.32,1.26l0.9-0.84l0.34,0.36L9.98,15.16z"/>
	<path fill="#FFF6A5" d="M14.726,15.16c-0.347-0.36-0.677-0.673-0.99-0.94c-0.313-0.267-0.617-0.486-0.91-0.66v-0.2
		c0.427-0.146,0.64-0.58,0.64-1.3V6.94l-0.7-0.6l1.66-1.3l1.66,1.36l-0.68,0.62v6.18l0.56,0.5l0.6-0.5l0.24,0.34L14.726,15.16z
		 M15.086,1.04l1.66,0.06l-1.66,2.26l-0.48-0.04L15.086,1.04z"/>
	<path fill="#FFF6A5" d="M29.622,10.2l0.32,0.06c-0.347,1.427-1.107,2.587-2.28,3.48c-1.187,0.88-2.514,1.32-3.98,1.32
		c-1.667,0-3.094-0.553-4.28-1.66c-1.173-1.12-1.76-2.52-1.76-4.2c0-2.306,1.233-4.32,3.7-6.04c-0.067,0-0.137-0.003-0.21-0.01
		c-0.073-0.006-0.144-0.017-0.21-0.03c-0.08,0-0.153-0.007-0.22-0.02h-0.22c-1.707,0-2.934,0.853-3.68,2.56l-0.32-0.14
		c0.32-1.32,0.91-2.336,1.77-3.05c0.86-0.713,1.957-1.07,3.29-1.07c0.347,0,0.767,0.03,1.26,0.09s1.073,0.157,1.74,0.29
		c1.32,0.24,2.32,0.36,3,0.36c0.973,0,1.667-0.367,2.08-1.1l0.32,0.1c-0.08,0.88-0.423,1.56-1.03,2.04
		c-0.607,0.48-1.357,0.72-2.25,0.72c-0.08,0-0.207-0.006-0.38-0.02c-0.173-0.013-0.3-0.02-0.38-0.02v9.34
		C27.475,12.827,28.715,11.827,29.622,10.2z M20.102,5.28c-0.454,0.894-0.68,1.86-0.68,2.9c0,1.56,0.613,2.894,1.84,4
		c0.587-0.426,0.88-1.173,0.88-2.24V3.16C21.275,3.587,20.595,4.293,20.102,5.28z M25.172,3.72c-0.113-0.026-0.237-0.053-0.37-0.08
		s-0.257-0.05-0.37-0.07c-0.114-0.02-0.21-0.03-0.29-0.03v5.02c0,1.227-0.36,2.167-1.08,2.82c-0.014,0.014-0.133,0.11-0.36,0.29
		c-0.227,0.18-0.567,0.457-1.02,0.83c0.906,0.587,1.86,0.88,2.86,0.88h0.24c0.08,0,0.16-0.003,0.24-0.01s0.153-0.017,0.22-0.03
		c0.026-0.013,0.06-0.02,0.1-0.02s0.08-0.006,0.12-0.02V3.78C25.382,3.767,25.285,3.747,25.172,3.72z"/>
	<path fill="#FFF6A5" d="M38.52,15.16c-1.427-0.64-2.72-0.96-3.88-0.96c-0.973,0-1.813,0.194-2.52,0.58
		c-0.333,0.173-0.514,0.44-0.54,0.8c0,0.16,0.046,0.313,0.14,0.46l0.02,0.02c0,0.013,0.007,0.026,0.02,0.04l0.1,0.18
		c0.013,0.04,0.033,0.113,0.06,0.22c0,0.387-0.16,0.58-0.48,0.58c-0.387,0-0.607-0.24-0.66-0.72v-0.14c0-0.4,0.133-0.773,0.4-1.12
		c0.067-0.094,0.173-0.21,0.32-0.35c0.146-0.14,0.327-0.31,0.54-0.51c0.826-0.76,1.24-1.44,1.24-2.04c0-0.533-0.22-0.8-0.66-0.8
		c-0.307,0-0.58,0.247-0.82,0.74l-0.3-0.08c0.133-1.173,0.727-1.773,1.78-1.8c0-0.546-0.107-0.993-0.32-1.34
		c-0.267-0.44-0.633-0.66-1.1-0.66c-0.547,0-0.987,0.24-1.32,0.72l-0.3-0.14c0.213-0.64,0.553-1.093,1.02-1.36
		c0.427-0.227,1-0.34,1.72-0.34c0.013-0.92,0.146-1.68,0.4-2.28c0.293-0.68,0.78-1.267,1.46-1.76c-0.427,0.12-0.82,0.18-1.18,0.18
		c-0.2,0-0.527-0.053-0.98-0.16C32.466,3.067,32.283,3.027,32.13,3s-0.283-0.04-0.39-0.04c-0.68,0-1.14,0.4-1.38,1.2L30,4.04
		c0.146-0.707,0.42-1.28,0.82-1.72c0.453-0.506,1.013-0.773,1.68-0.8c0.293-0.013,0.74,0.06,1.34,0.22
		c0.573,0.16,1.02,0.24,1.34,0.24c0.627,0,1.387-0.213,2.28-0.64l0.16,0.4c-0.094,0.067-0.347,0.207-0.76,0.42
		c-0.707,0.387-1.2,0.78-1.48,1.18c-0.307,0.467-0.46,1.08-0.46,1.84v4.74c0,0.827-0.08,1.447-0.24,1.86
		c-0.08,0.16-0.18,0.36-0.3,0.6c-0.12,0.24-0.26,0.527-0.42,0.86c0.04-0.026,0.09-0.056,0.15-0.09c0.06-0.033,0.123-0.077,0.19-0.13
		c0.667-0.44,1.137-0.91,1.41-1.41c0.273-0.5,0.41-1.143,0.41-1.93V6.12c0-1.013,0.066-1.713,0.2-2.1
		c0.2-0.626,0.646-1.146,1.34-1.56c0.88-0.507,1.78-0.88,2.7-1.12l0.14,0.4c-0.333,0.147-0.6,0.264-0.8,0.35
		c-0.2,0.087-0.34,0.15-0.42,0.19c-0.427,0.24-0.767,0.514-1.02,0.82C38.126,3.273,38.04,3.573,38,4
		c-0.014,0.067-0.02,0.147-0.02,0.24v2.54L41.3,4c0.093,0.067,0.213,0.157,0.36,0.27c0.147,0.113,0.313,0.243,0.5,0.39
		c0.747,0.626,1.247,1.333,1.5,2.12c0.187,0.627,0.28,1.5,0.28,2.62c0,0.88-0.054,1.567-0.16,2.06
		c-0.133,0.693-0.447,1.293-0.94,1.8c-0.213,0.24-0.92,0.84-2.12,1.8c-0.053,0.053-0.187,0.167-0.4,0.34
		c-0.133,0.133-0.247,0.267-0.34,0.4c-0.094,0.133-0.14,0.247-0.14,0.34c0,0.2,0.093,0.313,0.28,0.34c0.146,0,0.293-0.04,0.44-0.12
		h0.06c0.013,0,0.026-0.007,0.04-0.02c0.347,0,0.52,0.173,0.52,0.52c0,0.373-0.22,0.586-0.66,0.64c-0.027,0.013-0.06,0.02-0.1,0.02
		h-0.08c-0.293,0-0.547-0.11-0.76-0.33c-0.214-0.22-0.32-0.477-0.32-0.77c0-0.533,0.3-1.16,0.9-1.88
		c0.307-0.373,0.567-0.697,0.78-0.97c0.213-0.273,0.373-0.503,0.48-0.69c0.4-0.653,0.6-1.3,0.6-1.94c-0.747-0.28-1.414-0.42-2-0.42
		c-1.507,0-3.047,0.787-4.62,2.36c0.187,0,0.42,0.01,0.7,0.03c0.28,0.02,0.606,0.043,0.98,0.07c0.386,0.027,0.72,0.047,1,0.06
		c0.28,0.013,0.513,0.02,0.7,0.02c0.467,0,0.92-0.307,1.36-0.92l0.36,0.26L38.52,15.16z M40.04,8.28c0.787,0,1.466-0.167,2.04-0.5
		c-0.107-0.853-0.707-1.633-1.8-2.34l-2.3,1.88v0.5C38.62,8.127,39.307,8.28,40.04,8.28z M38.08,10.5
		c0.013-0.013,0.04-0.02,0.08-0.02c0.76-0.227,1.387-0.34,1.88-0.34c0.573,0,1.233,0.126,1.98,0.38c0-0.027,0-0.06,0-0.1
		c0-0.053,0.006-0.113,0.02-0.18V9.96v-1.1V8.6c-0.014-0.067-0.02-0.12-0.02-0.16c0-0.053,0-0.093,0-0.12
		c-0.574,0.267-1.247,0.4-2.02,0.4c-0.627,0-1.3-0.133-2.02-0.4v2.18H38.08z"/>
	<path fill="#FFF6A5" d="M48.313,15.16c-1.146-0.667-2.173-1.08-3.08-1.24V13.7c0.413-0.2,0.633-0.653,0.66-1.36v-0.22V8
		c0-0.507-0.22-0.76-0.66-0.76l-0.08-0.22c0.8-0.347,1.52-0.683,2.16-1.01c0.64-0.326,1.213-0.643,1.72-0.95l2.44,3.12l-3.62,3v1.84
		c0.72,0.36,1.3,0.66,1.74,0.9l1.42-1l0.2,0.28L48.313,15.16z M49.894,8.86l-2.04-2.62v4.28L49.894,8.86z"/>
	<path fill="#FFF6A5" d="M72.209,5l-2.14,1.58l2.42,1.16v0.28c-0.24,0.147-0.36,0.433-0.36,0.86v3.98
		c-2.227,0.347-4.033,1.12-5.42,2.32c-1.253-0.773-2.473-1.16-3.66-1.16c-0.707,0-1.347,0.087-1.92,0.26
		c-0.867,0.267-1.3,0.653-1.3,1.16c0,0.12,0.057,0.273,0.17,0.46c0.113,0.187,0.17,0.333,0.17,0.44c0,0.387-0.18,0.58-0.54,0.58
		c-0.4,0-0.627-0.24-0.68-0.72v-0.14c0-0.4,0.14-0.78,0.42-1.14c0.16-0.2,0.46-0.493,0.9-0.88c0.867-0.76,1.3-1.433,1.3-2.02
		c0-0.24-0.086-0.443-0.26-0.61c-0.173-0.167-0.38-0.25-0.62-0.25c-0.453,0-0.773,0.293-0.96,0.88l-0.36-0.02
		c0.053-1.24,0.773-1.92,2.16-2.04c0-1.253-0.487-1.88-1.46-1.88c-0.547,0-0.94,0.273-1.18,0.82l-0.38-0.1V8.8V8.78
		c0.213-1.253,0.806-1.906,1.78-1.96c0.16-0.013,0.526,0.027,1.1,0.12c0.04-0.947,0.26-1.733,0.66-2.36
		c0.36-0.56,0.967-1.107,1.82-1.64c-0.72,0.227-1.34,0.34-1.86,0.34c-0.307,0-0.647-0.06-1.02-0.18c-0.027,0-0.094-0.013-0.2-0.04
		l-0.4-0.08c-0.067-0.013-0.133-0.023-0.2-0.03c-0.067-0.006-0.133-0.01-0.2-0.01c-0.64,0-1.007,0.4-1.1,1.2l-0.46-0.02
		c0.106-0.8,0.353-1.433,0.74-1.9c0.44-0.533,1.04-0.8,1.8-0.8c0.373,0,0.913,0.08,1.62,0.24c0.374,0.093,0.693,0.16,0.96,0.2
		s0.48,0.06,0.64,0.06c0.68,0,1.393-0.18,2.14-0.54l0.32,0.44c-0.027,0.027-0.187,0.107-0.48,0.24c-1.04,0.507-1.753,1.04-2.14,1.6
		c-0.44,0.626-0.66,1.48-0.66,2.56V9.7c0,0.827-0.094,1.48-0.28,1.96c-0.173,0.427-0.56,0.94-1.16,1.54
		c0.48-0.173,0.883-0.373,1.21-0.6c0.327-0.227,0.59-0.487,0.79-0.78c0.2-0.293,0.343-0.633,0.43-1.02
		c0.087-0.386,0.13-0.84,0.13-1.36V6.52c0-1.093,0.106-1.88,0.32-2.36c0.28-0.613,0.84-1.153,1.68-1.62
		c1.053-0.573,2.053-0.973,3-1.2V1.32L72.209,5z M67.669,5.44v2.4l2.84-2.12l-2.46-3.36c-0.626,0.227-1.053,0.54-1.28,0.94
		c-0.2,0.347-0.3,0.874-0.3,1.58v3.64c0,0.894-0.12,1.607-0.36,2.14c-0.253,0.573-0.74,1.1-1.46,1.58
		c-0.147,0.107-0.31,0.21-0.49,0.31c-0.18,0.1-0.37,0.204-0.57,0.31c0.733-0.16,1.347-0.24,1.84-0.24c0.573,0,1.173,0.1,1.8,0.3
		V5.44H67.669z M68.909,9.36c0.466,0,0.88-0.086,1.24-0.26V8.7l-1.76-0.88l-0.72,0.54v0.76C68.069,9.28,68.482,9.36,68.909,9.36z
		 M68.369,10.84c0.2-0.026,0.373-0.04,0.52-0.04c0.453,0,0.873,0.06,1.26,0.18V9.56c-0.48,0.147-0.9,0.22-1.26,0.22
		c-0.333,0-0.74-0.066-1.22-0.2v1.38C67.936,10.907,68.169,10.867,68.369,10.84z M67.879,13.14c0.073,0.04,0.143,0.073,0.21,0.1
		l0.4,0.2c0.386-0.133,0.6-0.22,0.64-0.26h0.02c0.307-0.133,0.64-0.253,1-0.36v-1.38c-0.48-0.133-0.9-0.2-1.26-0.2
		c-0.347,0-0.753,0.074-1.22,0.22v1.58C67.736,13.067,67.806,13.1,67.879,13.14z"/>
	<path fill="#FFF6A5" d="M75.983,15.16c-0.68-0.693-1.487-1.16-2.42-1.4v-0.32c0.453-0.213,0.68-0.687,0.68-1.42V4.16
		c0-0.613-0.047-1.04-0.14-1.28c-0.147-0.4-0.427-0.707-0.84-0.92l0.1-0.32c0.64,0.28,1.16,0.606,1.56,0.98
		c0.546-0.613,1.287-1.04,2.22-1.28l0.1,0.3c-0.04,0.04-0.09,0.09-0.15,0.15s-0.137,0.124-0.23,0.19
		c-0.28,0.24-0.473,0.567-0.58,0.98c-0.053,0.213-0.08,0.6-0.08,1.16v8.82l0.98,0.68l0.42-0.32l0.28,0.32L75.983,15.16z"/>
	<path fill="#FFF6A5" d="M83.763,15.16c-0.053-0.054-0.117-0.11-0.19-0.17c-0.074-0.06-0.157-0.136-0.25-0.23
		c-0.414-0.453-0.66-1.026-0.74-1.72l-2.64,2.12c-1.027-0.787-1.54-1.613-1.54-2.48c0-1.093,0.533-2.233,1.6-3.42l0.28-0.32
		l-1.72-3.08c0,0.014,0.02,0.02,0.06,0.02h0.1c0.013,0.014,0.026,0.02,0.04,0.02h0.22c0.96,0,1.773-0.28,2.44-0.84
		c0.026,0.013,0.053,0.027,0.08,0.04s0.067,0.033,0.12,0.06c1,0.52,1.833,0.78,2.5,0.78c0.293,0,0.593-0.146,0.9-0.44l0.26,0.16
		c-0.454,0.693-0.687,1.353-0.7,1.98c-0.013,0.146-0.02,0.3-0.02,0.46c0,0.16,0,0.333,0,0.52v3.96v0.16
		c0.013,0.48,0.18,0.74,0.5,0.78c0.08,0,0.24-0.053,0.48-0.16l0.04-0.04l0.02-0.02c0.027,0,0.053-0.013,0.08-0.04l0.2,0.24
		L83.763,15.16z M79.203,6.22l1.48,2.68l1.9,0.82V7.34L79.203,6.22z M80.502,9.22c-0.04,0-0.106,0.2-0.2,0.6
		c-0.16,0.667-0.24,1.2-0.24,1.6c0,0.693,0.413,1.42,1.24,2.18l1.28-1.06v-2.42l-1.08-0.46L80.502,9.22z M80.623,2.32
		c0-0.92,0.593-1.68,1.78-2.28L82.483,0c1.24,0.387,1.86,1.087,1.86,2.1c0,0.4-0.22,0.887-0.66,1.46c-0.44,0.587-0.84,0.88-1.2,0.88
		V4.42C81.243,4.047,80.623,3.347,80.623,2.32z M83.583,2.6c0-0.4-0.193-0.793-0.58-1.18s-0.773-0.58-1.16-0.58
		c-0.213,0.213-0.36,0.487-0.44,0.82c-0.027,0.106-0.04,0.193-0.04,0.26c0,0.667,0.46,1.187,1.38,1.56
		c0.053,0.04,0.167,0.08,0.34,0.12V3.58C83.416,3.327,83.583,3,83.583,2.6z"/>
	<path fill="#FFF6A5" d="M88.579,11.36l-1.86-1.02V6.8c0.626-0.187,1.12-0.406,1.48-0.66c0.173-0.133,0.553-0.493,1.14-1.08
		c0.96,0.48,1.827,0.72,2.6,0.72c0.24,0,0.446-0.046,0.62-0.14c0.24-0.12,0.36-0.287,0.36-0.5c0-0.173-0.067-0.327-0.2-0.46
		c-0.013,0-0.02-0.006-0.02-0.02c-0.147-0.147-0.22-0.327-0.22-0.54c0-0.387,0.193-0.58,0.58-0.58c0.48,0,0.72,0.28,0.72,0.84v0.18
		c-0.067,0.4-0.354,0.953-0.86,1.66l-1.68,2.32l2.04,1.18v3.9c-0.987,0.293-1.907,0.807-2.76,1.54
		c-0.813-0.493-1.554-0.74-2.22-0.74c-0.707,0-1.374,0.247-2,0.74l-0.26-0.22L88.579,11.36z M90.098,10.14l-2.12,3l0.5-0.14
		c0.066-0.013,0.126-0.027,0.18-0.04s0.113-0.026,0.18-0.04c0.026,0,0.06,0,0.1,0s0.093-0.006,0.16-0.02h0.26h0.12
		c0.053,0,0.093,0.007,0.12,0.02c0.427,0.014,0.98,0.207,1.66,0.58v-2.72L90.098,10.14z M89.658,9.84l1.9-2.66
		c-0.174,0.054-0.367,0.08-0.58,0.08h-0.22c-0.147,0-0.283-0.01-0.41-0.03c-0.126-0.02-0.257-0.043-0.39-0.07
		c-0.494-0.133-0.92-0.313-1.28-0.54v2.66L89.658,9.84z"/>
</g>
<g>
</g>
<g>
</g>
<g>
</g>
<g>
</g>
<g>
</g>
<g>
</g>
</svg>
